<svg xmlns="http://www.w3.org/2000/svg" width="1440" height="900"><path d="M806,644L806,296L623,588Z" fill="#ec4476" stroke="#ec4476" stroke-width="1.51"/><path d="M806,296L561,314L623,588Z" fill="#ff5c73" stroke="#ff5c73" stroke-width="1.51"/><path d="M806,644L1102,611L806,296Z" fill="#cf4175" stroke="#cf4175" stroke-width="1.51"/><path d="M1102,611L1107,314L806,296Z" fill="#cd4973" stroke="#cd4973" stroke-width="1.51"/><path d="M806,296L620,19L561,314Z" fill="#ff806c" stroke="#ff806c" stroke-width="1.51"/><path d="M1107,314L919,43L806,296Z" fill="#d96e6e" stroke="#d96e6e" stroke-width="1.51"/><path d="M919,43L620,19L806,296Z" fill="#f6856a" stroke="#f6856a" stroke-width="1.51"/><path d="M623,588L525,887L806,644Z" fill="#c44a74" stroke="#c44a74" stroke-width="1.51"/><path d="M290,333L331,673L623,588Z" fill="#ed726e" stroke="#ed726e" stroke-width="1.51"/><path d="M290,333L623,588L561,314Z" fill="#ff736f" stroke="#ff736f" stroke-width="1.51"/><path d="M331,673L525,887L623,588Z" fill="#c25e70" stroke="#c25e70" stroke-width="1.51"/><path d="M806,644L946,958L1102,611Z" fill="#943973" stroke="#943973" stroke-width="1.51"/><path d="M620,19L290,333L561,314Z" fill="#ff9367" stroke="#ff9367" stroke-width="1.51"/><path d="M525,887L946,958L806,644Z" fill="#a03b74" stroke="#a03b74" stroke-width="1.51"/><path d="M946,958L1129,881L1102,611Z" fill="#6e3372" stroke="#6e3372" stroke-width="1.51"/><path d="M1467,-24L1200,-72L1107,314Z" fill="#a37569" stroke="#a37569" stroke-width="1.51"/><path d="M331,673L256,848L525,887Z" fill="#ae686d" stroke="#ae686d" stroke-width="1.51"/><path d="M525,887L796,1145L946,958Z" fill="#8d346f" stroke="#8d346f" stroke-width="1.51"/><path d="M-30,650L256,848L331,673Z" fill="#c28168" stroke="#c28168" stroke-width="1.51"/><path d="M946,958L1192,1145L1129,881Z" fill="#502c6c" stroke="#502c6c" stroke-width="1.51"/><path d="M574,1256L796,1145L525,887Z" fill="#903d69" stroke="#903d69" stroke-width="1.51"/><path d="M875,-336L596,-298L620,19Z" fill="#ffa272" stroke="#ffa272" stroke-width="1.51"/><path d="M1107,314L1200,-72L919,43Z" fill="#c37b6a" stroke="#c37b6a" stroke-width="1.51"/><path d="M1545,569L1107,314L1102,611Z" fill="#983a73" stroke="#983a73" stroke-width="1.51"/><path d="M620,19L238,-73L290,333Z" fill="#ffb35c" stroke="#ffb35c" stroke-width="1.51"/><path d="M290,333L-30,650L331,673Z" fill="#ea8b68" stroke="#ea8b68" stroke-width="1.51"/><path d="M335,-272L238,-73L620,19Z" fill="#ffc25f" stroke="#ffc25f" stroke-width="1.51"/><path d="M238,-73L13,292L290,333Z" fill="#ffbc59" stroke="#ffbc59" stroke-width="1.51"/><path d="M875,-336L620,19L919,43Z" fill="#f3996b" stroke="#f3996b" stroke-width="1.51"/><path d="M1129,881L1545,569L1102,611Z" fill="#693271" stroke="#693271" stroke-width="1.51"/><path d="M1530,913L1545,569L1129,881Z" fill="#3f2b6d" stroke="#3f2b6d" stroke-width="1.51"/><path d="M1545,569L1530,282L1107,314Z" fill="#944270" stroke="#944270" stroke-width="1.51"/><path d="M796,1145L1192,1145L946,958Z" fill="#632c69" stroke="#632c69" stroke-width="1.51"/><path d="M303,1183L574,1256L525,887Z" fill="#905065" stroke="#905065" stroke-width="1.51"/><path d="M796,1145L900,1534L1192,1145Z" fill="#622461" stroke="#622461" stroke-width="1.51"/><path d="M256,848L303,1183L525,887Z" fill="#946069" stroke="#946069" stroke-width="1.51"/><path d="M13,292L-30,650L290,333Z" fill="#ffa064" stroke="#ffa064" stroke-width="1.51"/><path d="M1143,-276L875,-336L919,43Z" fill="#d59273" stroke="#d59273" stroke-width="1.51"/><path d="M1200,-72L1143,-276L919,43Z" fill="#c18b6d" stroke="#c18b6d" stroke-width="1.51"/><path d="M1489,-287L1143,-276L1200,-72Z" fill="#9f8275" stroke="#9f8275" stroke-width="1.51"/><path d="M-31,892L303,1183L256,848Z" fill="#957365" stroke="#957365" stroke-width="1.51"/><path d="M596,-298L335,-272L620,19Z" fill="#ffb66a" stroke="#ffb66a" stroke-width="1.51"/><path d="M238,-73L-51,41L13,292Z" fill="#fed251" stroke="#fed251" stroke-width="1.51"/><path d="M-41,-307L335,-272L596,-298Z" fill="#ffd06a" stroke="#ffd06a" stroke-width="1.51"/><path d="M1530,282L1467,-24L1107,314Z" fill="#95606b" stroke="#95606b" stroke-width="1.51"/><path d="M1192,1145L1530,913L1129,881Z" fill="#1f276b" stroke="#1f276b" stroke-width="1.51"/><path d="M-30,650L-31,892L256,848Z" fill="#b08569" stroke="#b08569" stroke-width="1.51"/><path d="M13,292L-331,558L-30,650Z" fill="#f89b71" stroke="#f89b71" stroke-width="1.51"/><path d="M-30,650L-405,876L-31,892Z" fill="#ae8674" stroke="#ae8674" stroke-width="1.51"/><path d="M-41,-307L-51,41L238,-73Z" fill="#fee155" stroke="#fee155" stroke-width="1.51"/><path d="M1192,1145L1418,1240L1530,913Z" fill="#062064" stroke="#062064" stroke-width="1.51"/><path d="M1215,1562L1418,1240L1192,1145Z" fill="#1f1c5c" stroke="#1f1c5c" stroke-width="1.51"/><path d="M1530,913L1720,866L1545,569Z" fill="#3e2666" stroke="#3e2666" stroke-width="1.51"/><path d="M1545,569L1797,313L1530,282Z" fill="#8f3b68" stroke="#8f3b68" stroke-width="1.51"/><path d="M1530,282L1819,-7L1467,-24Z" fill="#916860" stroke="#916860" stroke-width="1.51"/><path d="M1761,1252L1720,866L1530,913Z" fill="#071c5e" stroke="#071c5e" stroke-width="1.51"/><path d="M1807,674L1797,313L1545,569Z" fill="#7e2a65" stroke="#7e2a65" stroke-width="1.51"/><path d="M1819,-7L1489,-287L1467,-24Z" fill="#917664" stroke="#917664" stroke-width="1.51"/><path d="M1467,-24L1489,-287L1200,-72Z" fill="#947c6d" stroke="#947c6d" stroke-width="1.51"/><path d="M1143,-276L1489,-287L875,-336Z" fill="#b2897a" stroke="#b2897a" stroke-width="1.51"/><path d="M-31,892L-5,1211L303,1183Z" fill="#91755f" stroke="#91755f" stroke-width="1.51"/><path d="M336,1546L597,1526L574,1256Z" fill="#89425a" stroke="#89425a" stroke-width="1.51"/><path d="M1720,866L1807,674L1545,569Z" fill="#522564" stroke="#522564" stroke-width="1.51"/><path d="M574,1256L900,1534L796,1145Z" fill="#842661" stroke="#842661" stroke-width="1.51"/><path d="M336,1546L574,1256L303,1183Z" fill="#8a4e5a" stroke="#8a4e5a" stroke-width="1.51"/><path d="M597,1526L900,1534L574,1256Z" fill="#88295e" stroke="#88295e" stroke-width="1.51"/><path d="M-51,41L-309,262L13,292Z" fill="#ffc464" stroke="#ffc464" stroke-width="1.51"/><path d="M-31,892L-342,1217L-5,1211Z" fill="#907769" stroke="#907769" stroke-width="1.51"/><path d="M-309,262L-331,558L13,292Z" fill="#ffac73" stroke="#ffac73" stroke-width="1.51"/><path d="M875,-336L-41,-307L596,-298Z" fill="#ffbc73" stroke="#ffbc73" stroke-width="1.51"/><path d="M335,-272L-41,-307L238,-73Z" fill="#ffdb5e" stroke="#ffdb5e" stroke-width="1.51"/><path d="M-51,41L-333,-82L-309,262Z" fill="#ffd864" stroke="#ffd864" stroke-width="1.51"/><path d="M597,1526L336,1546L900,1534Z" fill="#88345c" stroke="#88345c" stroke-width="1.51"/><path d="M-5,1211L336,1546L303,1183Z" fill="#8c6257" stroke="#8c6257" stroke-width="1.51"/><path d="M1797,313L1819,-7L1530,282Z" fill="#8e5660" stroke="#8e5660" stroke-width="1.51"/><path d="M2090,13L1819,-7L1797,313Z" fill="#8b5d57" stroke="#8b5d57" stroke-width="1.51"/><path d="M900,1534L1215,1562L1192,1145Z" fill="#461e5b" stroke="#461e5b" stroke-width="1.51"/><path d="M1418,1240L1761,1252L1530,913Z" fill="#071a5b" stroke="#071a5b" stroke-width="1.51"/><path d="M336,1546L1215,1562L900,1534Z" fill="#78225d" stroke="#78225d" stroke-width="1.51"/><path d="M1215,1562L1435,1466L1418,1240Z" fill="#071958" stroke="#071958" stroke-width="1.51"/><path d="M-41,-307L-333,-82L-51,41Z" fill="#ffe362" stroke="#ffe362" stroke-width="1.51"/><path d="M-309,262L-405,876L-331,558Z" fill="#e89a7e" stroke="#e89a7e" stroke-width="1.51"/><path d="M-5,1211L-46,1540L336,1546Z" fill="#8a6b52" stroke="#8a6b52" stroke-width="1.51"/><path d="M-331,558L-405,876L-30,650Z" fill="#c99079" stroke="#c99079" stroke-width="1.51"/><path d="M-333,-82L-405,876L-309,262Z" fill="#ffb079" stroke="#ffb079" stroke-width="1.51"/><path d="M1435,1466L1761,1252L1418,1240Z" fill="#081654" stroke="#081654" stroke-width="1.51"/><path d="M2104,841L2081,570L1807,674Z" fill="#511f5c" stroke="#511f5c" stroke-width="1.51"/><path d="M1819,-7L1849,-251L1489,-287Z" fill="#8e7465" stroke="#8e7465" stroke-width="1.51"/><path d="M2090,13L1849,-251L1819,-7Z" fill="#8a6c57" stroke="#8a6c57" stroke-width="1.51"/><path d="M1807,674L2081,570L1797,313Z" fill="#7a245f" stroke="#7a245f" stroke-width="1.51"/><path d="M2104,841L1807,674L1720,866Z" fill="#381e5d" stroke="#381e5d" stroke-width="1.51"/><path d="M-405,876L-342,1217L-31,892Z" fill="#927d75" stroke="#927d75" stroke-width="1.51"/><path d="M336,1546L-46,1540L1215,1562Z" fill="#89425a" stroke="#89425a" stroke-width="1.51"/><path d="M-342,1217L-46,1540L-5,1211Z" fill="#8b6f60" stroke="#8b6f60" stroke-width="1.51"/><path d="M2070,1233L2104,841L1720,866Z" fill="#071756" stroke="#071756" stroke-width="1.51"/><path d="M2156,235L1797,313L2081,570Z" fill="#88335c" stroke="#88335c" stroke-width="1.51"/><path d="M2156,235L2090,13L1797,313Z" fill="#895058" stroke="#895058" stroke-width="1.51"/><path d="M1215,1562L1761,1462L1435,1466Z" fill="#081654" stroke="#081654" stroke-width="1.51"/><path d="M1435,1466L1761,1462L1761,1252Z" fill="#07114e" stroke="#07114e" stroke-width="1.51"/><path d="M1761,1252L2070,1233L1720,866Z" fill="#081553" stroke="#081553" stroke-width="1.51"/><path d="M2104,841L2156,235L2081,570Z" fill="#72225d" stroke="#72225d" stroke-width="1.51"/><path d="M-333,-82L-391,-362L-405,876Z" fill="#ffcf71" stroke="#ffcf71" stroke-width="1.51"/><path d="M-41,-307L-391,-362L-333,-82Z" fill="#ffe775" stroke="#ffe775" stroke-width="1.51"/><path d="M875,-336L-391,-362L-41,-307Z" fill="#ffe067" stroke="#ffe067" stroke-width="1.51"/><path d="M-342,1217L-324,1530L-46,1540Z" fill="#896e63" stroke="#896e63" stroke-width="1.51"/><path d="M-405,876L-324,1530L-342,1217Z" fill="#8d7570" stroke="#8d7570" stroke-width="1.51"/><path d="M1761,1462L2070,1233L1761,1252Z" fill="#070e49" stroke="#070e49" stroke-width="1.51"/><path d="M2156,235L2076,-332L2090,13Z" fill="#8a6b53" stroke="#8a6b53" stroke-width="1.51"/><path d="M2090,13L2076,-332L1849,-251Z" fill="#8a6d5e" stroke="#8a6d5e" stroke-width="1.51"/><path d="M1849,-251L2076,-332L1489,-287Z" fill="#8c7369" stroke="#8c7369" stroke-width="1.51"/><path d="M1489,-287L2076,-332L875,-336Z" fill="#917d76" stroke="#917d76" stroke-width="1.51"/><path d="M875,-336L2076,-332L-391,-362Z" fill="#ec9b7d" stroke="#ec9b7d" stroke-width="1.51"/><path d="M1761,1462L2045,1518L2070,1233Z" fill="#080945" stroke="#080945" stroke-width="1.51"/><path d="M1215,1562L2045,1518L1761,1462Z" fill="#07114e" stroke="#07114e" stroke-width="1.51"/></svg>